<svg xmlns="http://www.w3.org/2000/svg" width="21" height="26.5" viewBox="0 0 21 26.5">
  <g id="Group_4" data-name="Group 4" transform="translate(-0.5)">
    <path id="Fill_2" data-name="Fill 2" d="M10.5,26.5h0a1.09,1.09,0,0,1-.832-.353,66.5,66.5,0,0,1-5.2-6.213C1.5,15.9,0,12.7,0,10.419a10.5,10.5,0,0,1,21,0c0,2.258-1.481,5.428-4.4,9.42a69.245,69.245,0,0,1-5.237,6.278l-.027.029A1.09,1.09,0,0,1,10.5,26.5Zm0-24.18a8.141,8.141,0,0,0-8.163,8.1c0,3.9,6.8,11.691,8.163,13.212a62.348,62.348,0,0,0,5.167-6.517c1.989-2.933,3-5.186,3-6.7A8.141,8.141,0,0,0,10.5,2.319Z" transform="translate(0.5)" fill="#323232"/>
    <path id="Fill_3" data-name="Fill 3" d="M5,10a5,5,0,1,1,5-5A5.006,5.006,0,0,1,5,10ZM5,2.3A2.7,2.7,0,0,0,2.3,5,2.67,2.67,0,0,0,5,7.7,2.669,2.669,0,0,0,7.7,5,2.7,2.7,0,0,0,5,2.3Z" transform="translate(6 5.5)" fill="#323232"/>
  </g>
</svg>
